PathFileType	4	(X/Y/Z)	Falisse_et_al_2022_v1.trc
DataRate	CameraRate	NumFrames	NumMarkers	Units	OrigDataRate	OrigDataStartFrame	OrigNumFrames
0	0	4	47	m	0	100	200
Frame#	Time	RASI			LASI			CLAV			RSHO			LSHO			RKNE			RKNE_med			RTHI1			RTHI2			RTHI3			RANK			RANK_med			RTIB1			RTIB2			RTIB3			LKNE			LKNE_med			LTHI1			LTHI2			LTHI3			LANK			LANK_med			LTIB1			LTIB2			LTIB3			RPSI			LPSI			RELB			LELB			RW1			RW2			LW1			LW2			hum_l2			hum_r2			rad_l2			rad_r2			LH			RH			Foot_r1			Foot_r4			Foot_r6			Foot_r7			foot_l1			foot_l4			foot_l6			foot_l7		
		X1	Y1	Z1	X2	Y2	Z2	X3	Y3	Z3	X4	Y4	Z4	X5	Y5	Z5	X6	Y6	Z6	X7	Y7	Z7	X8	Y8	Z8	X9	Y9	Z9	X10	Y10	Z10	X11	Y11	Z11	X12	Y12	Z12	X13	Y13	Z13	X14	Y14	Z14	X15	Y15	Z15	X16	Y16	Z16	X17	Y17	Z17	X18	Y18	Z18	X19	Y19	Z19	X20	Y20	Z20	X21	Y21	Z21	X22	Y22	Z22	X23	Y23	Z23	X24	Y24	Z24	X25	Y25	Z25	X26	Y26	Z26	X27	Y27	Z27	X28	Y28	Z28	X29	Y29	Z29	X30	Y30	Z30	X31	Y31	Z31	X32	Y32	Z32	X33	Y33	Z33	X34	Y34	Z34	X35	Y35	Z35	X36	Y36	Z36	X37	Y37	Z37	X38	Y38	Z38	X39	Y39	Z39	X40	Y40	Z40	X41	Y41	Z41	X42	Y42	Z42	X43	Y43	Z43	X44	Y44	Z44	X45	Y45	Z45	X46	Y46	Z46	X47	Y47	Z47
100	1.10266409	1.472182364344244	0.9136272892475101	0.11666126829644764	1.4426175673656036	0.896868645253458	-0.1374349971720784	1.475332851391037	1.3323832394998831	-0.03358107574857998	1.400249088517163	1.3765671662814016	0.15922534254684584	1.3759771481615333	1.3643341680116483	-0.18407253904995707	1.5913096841556171	0.48180731087144557	0.11241396488918476	1.5483016987451146	0.4419677179131112	0.009905639269230354	1.5003844757321465	0.7739281959029798	0.18493728022985295	1.4509321346280633	0.739193764029207	0.21109731232726997	1.502112080920055	0.7171916522468426	0.1924761437227719	1.6599265472333267	0.09007779997477028	0.09101874117810035	1.6581521072165777	0.11351079178656748	0.009103642708498838	1.6325258523719546	0.3049878756652072	0.12268355292217913	1.5671415049034527	0.2763630382466437	0.13939204554405737	1.6176823998095748	0.25160502932600887	0.12749249667915685	1.231754365402683	0.44423785471524335	-0.10152670772332395	1.2101413675158144	0.4528528309254193	-0.009556883329248575	1.3906640702972166	0.6156758687651422	-0.10054696231364227	1.3550935409068112	0.6260355616888843	-0.15962325729797971	1.3543759979040604	0.573887564761346	-0.1263151257405095	1.0096787321086451	0.11831148935162966	-0.08985222770168033	1.0057145399203988	0.13883608395637909	-0.006366032637117797	1.1357136227382092	0.27581105163156383	-0.09820901915932567	1.082838950626813	0.3008285478917466	-0.13068764984627557	1.0903522740401588	0.24485222016992597	-0.11233468473121101	1.2934101291872042	0.9557062960379739	0.031888884484688296	1.2892529945038953	0.9584113109397393	-0.016342304709582922	1.3331372899770728	1.074028743915826	0.21136257754792223	1.315298041636575	1.034361725806546	-0.21611024870017698	1.3944177082406672	0.8471774630664054	0.2800516355920003	1.3205622781550088	0.8653991844031428	0.3010608912429966	1.592084890380224	0.9936432156894999	-0.145335911733241	1.5578262277126351	0.9202555403218848	-0.15195263471848336	1.3559467182579192	1.2013350014321773	-0.22956080522704328	1.3764104524273635	1.221041198859641	0.19948063445863762	1.4686592227620454	0.9897109119512274	-0.20180247177497956	1.3584324000653116	0.9410628508115593	0.27557152405966717	1.6386138534864603	0.9366933676851589	-0.1482513068700948	1.3678238869412602	0.8117964588963092	0.3273782139507166	1.6180891680901754	0.06513078064295748	0.051570929389427984	1.7127442104140815	0.07712527926242621	0.09646436851089585	1.804074130512966	0.13438301541978417	0.07160192122197007	1.8354912791868616	0.14333606262285617	0.03243046082353753	0.9473311190379724	0.13301427301662422	-0.055665654496264386	1.0276086850387012	0.061846809981966296	-0.08368030323525301	1.114225419425574	0.024262023180988815	-0.04016051946975685	1.1351967600606003	0.03289278318412541	-0.00045957351617734177
101	1.11369073	1.4905226856810037	0.9122296110132571	0.11679169001795778	1.4594577911256885	0.8948718220669959	-0.1370852900001671	1.4920687860458175	1.3310294029494174	-0.032766119556868825	1.4178042677603215	1.3746298131935162	0.16048990575518965	1.391928714107198	1.363084118322678	-0.18271464185052216	1.6057106866464075	0.478062457452466	0.11095598158876308	1.5609853064721075	0.4386235241322554	0.009029303508926292	1.5189505400317296	0.7712333347909283	0.18433956222132852	1.4694459422724635	0.7370716147230574	0.21114690748907078	1.5201415864277257	0.7144870010451982	0.1919085438830654	1.6657846062857913	0.0846378799817406	0.08955377695689079	1.6634603178972593	0.10794555330918981	0.007616684334213794	1.6432811328314638	0.3001341976301667	0.12109311394108091	1.5775307002385817	0.27291461949199103	0.13868979307792192	1.6273885518453386	0.247082653546436	0.12620602380096296	1.2500296062299863	0.44205428214802517	-0.10091881488461947	1.2296675132802284	0.4500854566831629	-0.008611320616124102	1.4083228922569087	0.6140641794155752	-0.10119758524641259	1.371897064444341	0.6246177231473564	-0.15971575516426748	1.3718296486699784	0.5722854899639456	-0.12669011505668504	1.014466902789425	0.12422831261606126	-0.08922932108017612	1.01216835005631	0.1442547118373083	-0.005559860944968138	1.1464752669700207	0.2767451316261452	-0.09778229969888279	1.094288487187854	0.3040553273858857	-0.12951809565309633	1.0997943032659048	0.24768994754147047	-0.1116502315737379	1.3112588288143945	0.9541318892344862	0.03297533938263977	1.306817657692314	0.956722960389862	-0.015236783935253025	1.3472157718473643	1.073267672201273	0.2124577375883607	1.3291608124924155	1.0337540739721511	-0.21526972386547732	1.4040784927217964	0.8461802858109877	0.2831409727697752	1.330376442885059	0.8658179847287588	0.30339962859138103	1.6071324829073301	1.0010306831316733	-0.14209703480979308	1.575221012528712	0.9264949385256012	-0.14750709220232547	1.3710539724803212	1.2004361403277453	-0.22851204453668933	1.3921438452006418	1.219782190952428	0.20056769601932564	1.4842665044337913	0.9921661582680695	-0.19922148119934585	1.3697558446713713	0.9406358126522929	0.2777013849348878	1.6554310899535483	0.945518451381943	-0.14363515308295788	1.3764867151219322	0.8116002680350465	0.3304882851119565	1.6225873275822582	0.0611719424740625	0.05059610100976071	1.717999598765276	0.0702356317513449	0.09456443000926876	1.8109783711950491	0.1242202809736285	0.06851928715828215	1.8423243458749783	0.13186027706052592	0.02901245409387579	0.9534104828981107	0.14144420674604524	-0.05477785459433579	1.0299302406199067	0.06637241889819029	-0.08311633178143892	1.1149422751881444	0.024769736813176152	-0.04009055723154183	1.136349552913263	0.03343460752563655	-0.0006244724310035879
102	1.12471737	1.508926530824123	0.9108525185384009	0.11697477972699641	1.4764705736324426	0.8929445503490969	-0.13668987490991175	1.508844167141562	1.329732705737223	-0.03188138469419907	1.4353499905127562	1.3727266030283425	0.1618045377844881	1.4079481216449514	1.3618721333850066	-0.18130408483444427	1.6195527767932527	0.47406638637912785	0.10977146249040272	1.5730997585005018	0.4350816657957229	0.0084445388714081	1.537415764746085	0.7684005116807723	0.18381584243472843	1.4878096655130315	0.7349015816922757	0.21126431572765514	1.537977933811281	0.7116523793525455	0.19144394257140201	1.669673950405926	0.0788750597532955	0.08880021325435025	1.6669054917490682	0.10201504261706645	0.006829401805158376	1.6528132645124647	0.29493872796107623	0.11997724914205786	1.5866422572244334	0.26937650994634194	0.13846072125827052	1.6356986039824397	0.24230403386850416	0.12544165030112514	1.2694498189359296	0.43961382671681204	-0.10051105144819256	1.2503266635348056	0.44697320378695365	-0.007883125915550543	1.4266728233363222	0.6125967260543458	-0.10195683711823016	1.3893719444600692	0.6232708871396595	-0.15989905961485407	1.3900833448250136	0.5707448945519016	-0.12719012977059505	1.0200272214319719	0.13080767824299222	-0.08860615410959305	1.0194075636226758	0.15027179687059744	-0.00477487903875367	1.1580927674654524	0.2778467547216825	-0.09744678330746688	1.1067500491710363	0.3075145214630647	-0.12843414227905953	1.1101188963851298	0.25083601260840693	-0.11103218477682553	1.3292070523529442	0.9525789386131625	0.03405115909670771	1.3245018269361275	0.955065464081065	-0.014141418447577454	1.3613040793113715	1.0726028222269406	0.21364701049825618	1.3431090313778715	1.0332015847540177	-0.2143708064725774	1.4142088100386099	0.8452664036134754	0.285926170877234	1.3406700822439286	0.8661430006805683	0.30552891848715447	1.6219073154012222	1.0076646237684146	-0.1391620220180548	1.592114586311591	0.9321843040561244	-0.14344016603384346	1.3862380259087195	1.199584449023694	-0.22740688959898867	1.4079009832020963	1.2185926832517409	0.20172651997179256	1.4996772340819693	0.9943831952991038	-0.1967922373667223	1.3813804126288556	0.9402041336809067	0.27971299382952947	1.6717399282692451	0.9535042276922256	-0.13946420719160932	1.385742952079562	0.8113787525648111	0.3332566456645435	1.6251698293816665	0.05690882599155995	0.05032282763895202	1.721205465916796	0.06299675573473972	0.09343848068237093	1.8157549698143898	0.11357812814359533	0.06624178937103	1.8470191308160344	0.1198491857386498	0.02642571063112816	0.9604381322786145	0.15062755573302425	-0.053906084399796245	1.032787786752857	0.07162668402698522	-0.08251562317453634	1.1158899901452497	0.025881539660600236	-0.03996621645781935	1.1378576403422949	0.03426763621546261	-0.000737988866323265
103	1.13574402	1.5271447409551788	0.9096539323125119	0.1172345189629503	1.4934341783941087	0.8912719851259789	-0.13623252718586748	1.5255569455102966	1.3286251371333073	-0.030905600278461773	1.4527740750941722	1.371023202656759	0.16317985405262453	1.4239648033131906	1.3608625802976348	-0.1798347177324124	1.6332864871463193	0.47036320258567316	0.10862129831321664	1.585189396644824	0.43187856394382834	0.007871909871102742	1.5556553191064064	0.7657482218914939	0.18333895609850198	1.5059585707610301	0.7328869447393028	0.2113876948478552	1.5556035495078964	0.7090033575243003	0.1910117754207829	1.6734280470479064	0.07364427675935203	0.08815427825802832	1.6702566313565106	0.09664351352033224	0.006158459274167631	1.6621986053579147	0.2901304802110999	0.11893450517926484	1.5956478634272322	0.2662334097550404	0.1382631551297955	1.6438739547219825	0.2379419426068351	0.12474363842813403	1.289963479552293	0.43706308788885245	-0.10037369725737535	1.27203732320863	0.4436576347069641	-0.00744924965157559	1.4455827103118213	0.6114789158780444	-0.10282743660092572	1.407401587902983	0.622181107498919	-0.16018821949111803	1.4090327951469255	0.569456548870163	-0.12783361920467848	1.026507592587814	0.13814951953162297	-0.08808809886153743	1.0275456795847788	0.15698715853498196	-0.0041179595147511905	1.1706150884210191	0.2792494360358789	-0.09728510625624257	1.1202785931344097	0.31130663771172257	-0.1275347440109432	1.1214026577885892	0.2544060349284494	-0.11057336128422088	1.347015074296617	0.9512193255051118	0.03512402504856686	1.34207121103884	0.9536158434819586	-0.013049218595208849	1.3754544304956107	1.0721134247736044	0.21487797377083911	1.3571490366482701	1.0328379498464106	-0.21340590262846995	1.4248611978854424	0.8445205934559636	0.28837557242091505	1.3514930146784905	0.8664736198916335	0.3074338731805876	1.636477335524629	1.0135081756389595	-0.1365086526702756	1.608522905843956	0.9372777180050539	-0.13977286419087193	1.4014580352027612	1.1989264398185095	-0.226236853528081	1.4236501183352424	1.2175820495820835	0.20294214792475124	1.514901505423999	0.9964196590087232	-0.19451840165569395	1.3933628547397243	0.9398671309596164	0.28156587338098094	1.6875932466796197	0.96056196472552	-0.13573956166934417	1.395646875990187	0.8112214437995919	0.3356676630375903	1.6276955604960917	0.053239390498803746	0.050144497869391756	1.7242300263820283	0.056313138275988925	0.09245897389527438	1.82024180604827	0.10341138205620978	0.06415283430562382	1.8513928638314123	0.10829996388308336	0.024049401314577494	0.9685550521491664	0.16060978025711495	-0.05318082530619932	1.0363552513203627	0.0777309344211786	-0.08196182332588003	1.1172372988937291	0.027806804937692553	-0.03983437230671239	1.1398770311842386	0.03548088051979448	-0.0008369996218359349
